<svg width="50" height="50" viewBox="0 0 50 50" fill="none" xmlns="http://www.w3.org/2000/svg">
<path fill-rule="evenodd" clip-rule="evenodd" d="M25 3.125C12.9159 3.125 3.125 12.9159 3.125 25C3.125 37.0841 12.9159 46.875 25 46.875C37.0841 46.875 46.875 37.0841 46.875 25C46.875 12.9159 37.0841 3.125 25 3.125ZM25 6.7707C27.3966 6.76114 29.7714 7.22612 31.9874 8.13883C34.2034 9.05154 36.2168 10.3939 37.9115 12.0886C39.6061 13.7832 40.9485 15.7966 41.8612 18.0126C42.7739 20.2286 43.2389 22.6034 43.2293 25C43.2389 27.3966 42.7739 29.7714 41.8612 31.9874C40.9485 34.2034 39.6061 36.2168 37.9115 37.9115C36.2168 39.6061 34.2034 40.9485 31.9874 41.8612C29.7714 42.7739 27.3966 43.2389 25 43.2293C22.6034 43.2389 20.2286 42.7739 18.0126 41.8612C15.7966 40.9485 13.7832 39.6061 12.0885 37.9115C10.3939 36.2168 9.05149 34.2034 8.13878 31.9874C7.22607 29.7714 6.76109 27.3966 6.77065 25C6.76109 22.6034 7.22607 20.2286 8.13878 18.0126C9.05149 15.7966 10.3939 13.7832 12.0885 12.0885C13.7832 10.3939 15.7966 9.05149 18.0126 8.13878C20.2286 7.22607 22.6034 6.76109 25 6.77065M22.0942 15.4297C18.5487 15.4297 15.4588 15.7578 12.5239 16.6838C11.7474 16.8388 11.1002 17.424 11.1002 18.5068C11.1002 19.5877 11.8987 20.543 12.9797 20.3844C13.4427 20.3844 13.7563 20.2148 14.0625 20.2148C16.5326 19.5951 19.318 19.3034 22.0942 19.3034C27.4919 19.3034 33.0317 20.5065 36.7341 22.6648C37.1971 22.8216 37.3539 23.0057 37.8169 23.0057C38.8998 23.0057 39.6544 22.2091 39.8112 21.1263C39.8112 20.2002 39.3482 19.6096 38.7284 19.3034C34.1 16.682 27.9549 15.4297 22.0943 15.4297M21.582 22.2091C18.3427 22.2091 16.0349 22.6721 13.7198 23.2919C12.9523 23.5963 12.524 24.0758 12.524 25C12.524 25.7693 13.1365 26.5386 14.0625 26.5386C14.376 26.5386 14.5109 26.5239 14.974 26.3672C16.6693 25.9042 18.9971 25.6271 21.469 25.6271C26.5586 25.6271 30.9883 26.8667 34.2294 28.8737C34.5338 29.0305 34.8492 29.1581 35.3104 29.1581C36.2365 29.1581 36.849 28.3742 36.849 27.45C36.849 26.8302 36.5573 26.2177 35.9375 25.9114C31.9271 23.4414 26.8302 22.2091 21.582 22.2091ZM22.0942 28.8737C19.4748 28.8737 16.9901 29.1654 14.5182 29.7852C13.8984 29.9419 13.4354 30.3831 13.4354 31.1523C13.4354 31.7721 13.9203 32.4065 14.6896 32.4065C14.8463 32.4065 15.2948 32.2352 15.601 32.2352C17.6745 31.7516 19.7957 31.5027 21.9248 31.4932C25.7766 31.4932 29.3002 32.4193 32.2352 34.1146C32.5487 34.2713 32.8969 34.399 33.2031 34.399C33.8229 34.399 34.4136 33.9359 34.5703 33.318C34.5703 32.5414 34.2349 32.2552 33.7719 31.9508C30.3758 29.9419 26.4091 28.8737 22.0943 28.8737" fill="#FF1616"/>
</svg>
