<svg width="154" height="100" viewBox="0 0 154 100" fill="none" xmlns="http://www.w3.org/2000/svg">
<g filter="url(#filter0_b_18_260)">
<path d="M68.7359 29.1196C60.5342 29.1196 54.5899 32.9947 50.9029 40.7449C49.398 44.2062 48.5327 48.0813 48.307 52.3702H68.7359V100H0V54.5147C0 27.8781 12.6035 10.9481 37.8104 3.72461C46.4635 1.24154 56.772 0 68.7359 0V29.1196ZM153.499 29.1196C144.846 29.1196 138.901 32.9947 135.666 40.7449C134.161 44.2062 133.333 48.0813 133.183 52.3702H153.499V100H84.8758V54.5147C84.8758 27.8781 97.4417 10.9481 122.573 3.72461C131.226 1.24154 141.535 0 153.499 0V29.1196Z" fill="#FF1616" fill-opacity="0.2"/>
</g>
<defs>
<filter id="filter0_b_18_260" x="-8" y="-8" width="169.499" height="116" filterUnits="userSpaceOnUse" color-interpolation-filters="sRGB">
<feFlood flood-opacity="0" result="BackgroundImageFix"/>
<feGaussianBlur in="BackgroundImageFix" stdDeviation="4"/>
<feComposite in2="SourceAlpha" operator="in" result="effect1_backgroundBlur_18_260"/>
<feBlend mode="normal" in="SourceGraphic" in2="effect1_backgroundBlur_18_260" result="shape"/>
</filter>
</defs>
</svg>
