<svg width="50" height="50" viewBox="0 0 50 50" fill="none" xmlns="http://www.w3.org/2000/svg">
<g clip-path="url(#clip0_21_392)">
<path d="M24.9998 8.3335C26.7811 8.3335 28.6082 8.37933 30.379 8.45433L32.4707 8.55433L34.4728 8.67308L36.3478 8.80016L38.0602 8.9335C39.919 9.07494 41.6682 9.86773 42.9997 11.1722C44.3313 12.4768 45.1599 14.2093 45.3394 16.0647L45.4228 16.9502L45.579 18.846C45.7248 20.8106 45.8332 22.9522 45.8332 25.0002C45.8332 27.0481 45.7248 29.1897 45.579 31.1543L45.4228 33.0502L45.3394 33.9356C45.1598 35.7913 44.331 37.5241 42.999 38.8287C41.667 40.1333 39.9173 40.9259 38.0582 41.0668L36.3498 41.1981L34.4748 41.3272L32.4707 41.446L30.379 41.546C28.587 41.6236 26.7935 41.6639 24.9998 41.6668C23.2061 41.6639 21.4127 41.6236 19.6207 41.546L17.529 41.446L15.5269 41.3272L13.6519 41.1981L11.9394 41.0668C10.0807 40.9254 8.3315 40.1326 6.99993 38.8281C5.66835 37.5236 4.83982 35.791 4.66025 33.9356L4.57692 33.0502L4.42067 31.1543C4.26199 29.1067 4.17721 27.0539 4.1665 25.0002C4.1665 22.9522 4.27484 20.8106 4.42067 18.846L4.57692 16.9502L4.66025 16.0647C4.83975 14.2096 5.66799 12.4774 6.99914 11.1729C8.33028 9.86841 10.079 9.07541 11.9373 8.9335L13.6478 8.80016L15.5228 8.67308L17.5269 8.55433L19.6186 8.45433C21.4113 8.37668 23.2054 8.33639 24.9998 8.3335ZM24.9998 12.5002C23.2811 12.5002 21.5123 12.546 19.7915 12.6168L17.754 12.7147L15.7978 12.8293L13.9603 12.9543L12.2769 13.0856C11.3919 13.1475 10.5575 13.5213 9.92205 14.1403C9.28657 14.7594 8.89116 15.5837 8.80609 16.4668C8.56234 18.9856 8.33317 22.121 8.33317 25.0002C8.33317 27.8793 8.56234 31.0147 8.80609 33.5335C8.98317 35.3502 10.4248 36.7627 12.2769 36.9147L13.9603 37.0439L15.7978 37.1689L17.754 37.2856L19.7915 37.3835C21.5123 37.4543 23.2811 37.5002 24.9998 37.5002C26.7186 37.5002 28.4873 37.4543 30.2082 37.3835L32.2457 37.2856L34.2019 37.171L36.0394 37.046L37.7228 36.9147C38.6078 36.8528 39.4422 36.4791 40.0776 35.86C40.7131 35.2409 41.1085 34.4166 41.1936 33.5335C41.4373 31.0147 41.6665 27.8793 41.6665 25.0002C41.6665 22.121 41.4373 18.9856 41.1936 16.4668C41.1085 15.5837 40.7131 14.7594 40.0776 14.1403C39.4422 13.5213 38.6078 13.1475 37.7228 13.0856L36.0394 12.9564L34.2019 12.8314L32.2457 12.7147L30.2082 12.6168C28.473 12.5424 26.7366 12.5035 24.9998 12.5002ZM20.8332 19.9481C20.833 19.7445 20.8826 19.5439 20.9777 19.3638C21.0727 19.1837 21.2103 19.0296 21.3785 18.9148C21.5467 18.8 21.7403 18.7281 21.9427 18.7052C22.145 18.6823 22.3499 18.7092 22.5394 18.7835L22.7082 18.8668L31.4582 23.9168C31.6324 24.0174 31.7798 24.1585 31.8879 24.3282C31.9959 24.4978 32.0614 24.6911 32.0788 24.8915C32.0962 25.0919 32.0649 25.2936 31.9877 25.4793C31.9105 25.6651 31.7896 25.8295 31.6353 25.9585L31.4582 26.0835L22.7082 31.1356C22.5318 31.2377 22.3332 31.2951 22.1296 31.3029C21.926 31.3107 21.7236 31.2686 21.54 31.1803C21.3563 31.092 21.1971 30.9601 21.0761 30.7962C20.9551 30.6323 20.876 30.4412 20.8457 30.2397L20.8332 30.0522V19.9481Z" fill="#FF1616"/>
</g>
<defs>
<clipPath id="clip0_21_392">
<rect width="50" height="50" fill="white"/>
</clipPath>
</defs>
</svg>
