<svg width="51" height="841" viewBox="0 0 51 841" fill="none" xmlns="http://www.w3.org/2000/svg">
<g style="mix-blend-mode:difference">
<path d="M29.7969 14.3398C29.7969 12.0449 28.9424 10.8975 27.2334 10.8975C26.501 10.8975 25.4837 11.166 24.1816 11.7031L20.9346 13.0459V22.5918C26.8428 20.3945 29.7969 17.6439 29.7969 14.3398ZM44.2988 14.7549C44.2988 19.9632 41.7272 24.0973 36.584 27.1572L47.1797 41H27.8926L21.0322 29.6963V41H5.08984V2.01074C15.4089 1.27832 22.1715 0.912109 25.3779 0.912109C28.5843 0.912109 31.0257 1.10742 32.7021 1.49805C37.3245 2.55599 40.6286 4.81836 42.6143 8.28516C43.721 10.2708 44.2826 12.4274 44.2988 14.7549ZM0.329102 121L19.7139 83.9883C20.3812 82.6699 21.61 81.791 23.4004 81.3516C23.9212 81.2214 24.5641 81.1562 25.3291 81.1562C26.0941 81.1562 26.9242 81.376 27.8193 81.8154C28.7308 82.2386 29.4469 82.9141 29.9678 83.8418L50.7686 121H30.9688L29.4307 117.143H18.8838L17.5654 121H0.329102ZM20.0801 109.403H27.9658L24.2305 98.8564L20.0801 109.403ZM0.890625 162.011H6.48145L25.3291 179.711L44.6895 162.011H50.085V201H34.0449V188.354L24.084 199.291L14.3916 188.646V201H0.890625V162.011ZM26.0127 267.572C28.2913 267.556 30.0085 268.199 31.1641 269.501C32.3359 270.787 32.9219 272.398 32.9219 274.335C32.9219 276.272 32.2057 278.021 30.7734 279.584C29.3411 281.13 27.4368 281.895 25.0605 281.879C22.6842 281.879 20.9264 281.252 19.7871 279.999C18.6478 278.729 18.0781 277.143 18.0781 275.238C18.0781 273.318 18.835 271.56 20.3486 269.965C21.8623 268.37 23.7503 267.572 26.0127 267.572ZM0.890625 322.011H6.48145L25.3291 339.711L44.6895 322.011H50.085V361H34.0449V348.354L24.084 359.291L14.3916 348.646V361H0.890625V322.011ZM33.1172 441H17.9316V402.011H33.1172V441ZM29.7969 494.34C29.7969 492.045 28.9424 490.897 27.2334 490.897C26.501 490.897 25.4837 491.166 24.1816 491.703L20.9346 493.046V502.592C26.8428 500.395 29.7969 497.644 29.7969 494.34ZM44.2988 494.755C44.2988 499.963 41.7272 504.097 36.584 507.157L47.1797 521H27.8926L21.0322 509.696V521H5.08984V482.011C15.4089 481.278 22.1715 480.912 25.3779 480.912C28.5843 480.912 31.0257 481.107 32.7021 481.498C37.3245 482.556 40.6286 484.818 42.6143 488.285C43.721 490.271 44.2826 492.427 44.2988 494.755ZM17.4678 585.79L5.57812 562.011H22.9854L26.8672 569.994L30.8711 562.011H45.4219L33.2881 585.79V601H17.4678V585.79ZM0.329102 681L19.7139 643.988C20.3812 642.67 21.61 641.791 23.4004 641.352C23.9212 641.221 24.5641 641.156 25.3291 641.156C26.0941 641.156 26.9242 641.376 27.8193 641.815C28.7308 642.239 29.4469 642.914 29.9678 643.842L50.7686 681H30.9688L29.4307 677.143H18.8838L17.5654 681H0.329102ZM20.0801 669.403H27.9658L24.2305 658.856L20.0801 669.403ZM12.4629 722.011H27.6484V749.257H40.7588V761H12.4629V722.011ZM0.329102 841L19.7139 803.988C20.3812 802.67 21.61 801.791 23.4004 801.352C23.9212 801.221 24.5641 801.156 25.3291 801.156C26.0941 801.156 26.9242 801.376 27.8193 801.815C28.7308 802.239 29.4469 802.914 29.9678 803.842L50.7686 841H30.9688L29.4307 837.143H18.8838L17.5654 841H0.329102ZM20.0801 829.403H27.9658L24.2305 818.856L20.0801 829.403Z" fill="#FF2121"/>
</g>
</svg>
