<svg width="133" height="120" viewBox="0 0 133 120" fill="none" xmlns="http://www.w3.org/2000/svg">
<path fill-rule="evenodd" clip-rule="evenodd" d="M131.102 75.6255L130.902 76.5569L130.69 77.4826L130.466 78.4025L130.23 79.3163L129.982 80.224L129.723 81.1255L129.452 82.0205L129.17 82.909L128.876 83.7909L128.57 84.6658L128.253 85.5338L127.925 86.3946L127.585 87.2481L127.234 88.0942L126.871 88.9326L126.498 89.7633L126.113 90.586L125.717 91.4006L125.31 92.2069L124.893 93.0048L124.464 93.7941L124.025 94.5746L123.576 95.3462L123.115 96.1086L122.645 96.8618L122.164 97.6055L121.673 98.3396L121.172 99.064L120.662 99.7784L120.141 100.483L119.611 101.177L119.071 101.86L118.522 102.533L117.964 103.195L117.397 103.846L116.821 104.486L116.236 105.115L115.642 105.732L115.04 106.338L114.429 106.932L113.811 107.513L113.184 108.083L112.549 108.64L111.907 109.184L111.257 109.716L110.599 110.234L109.935 110.74L109.263 111.232L108.585 111.711L107.9 112.176L107.209 112.627L106.512 113.065L105.809 113.488L105.101 113.898L104.387 114.293L103.669 114.675L102.947 115.042L102.22 115.395L101.489 115.734L100.755 116.058L100.018 116.369L99.2785 116.666L98.5363 116.948L97.792 117.217L97.0461 117.472L96.2988 117.713L95.5505 117.941L94.8016 118.156L94.0525 118.358L93.3033 118.546L92.5546 118.722L91.8065 118.886L91.0594 119.037L90.3135 119.177L89.569 119.304L88.8264 119.42L88.0857 119.525L87.3473 119.619L86.6112 119.701L85.8778 119.773L85.1473 119.835L84.4197 119.886L83.6953 119.928L82.9742 119.96L82.2566 119.982L81.5427 119.996L80.8324 120L80.126 119.996L79.4236 119.983L78.7252 119.962L78.031 119.933L77.3409 119.897L76.6551 119.853L75.9736 119.802L75.2965 119.743L74.6237 119.679L73.9554 119.607L73.2914 119.53L72.6318 119.446L71.9767 119.357L71.3259 119.262L70.6795 119.162L70.0374 119.056L69.3996 118.946L68.766 118.831L68.1366 118.711L67.5113 118.586L66.89 118.457L66.2727 118.324L65.6593 118.187L65.0498 118.045L64.4439 117.9L63.8418 117.751L63.2432 117.598L62.6481 117.441L62.0564 117.281L61.468 117.116L60.8829 116.949L60.301 116.777L59.7222 116.602L59.1464 116.423L58.5737 116.24L58.0038 116.053L57.4367 115.863L56.8725 115.669L56.311 115.471L55.7522 115.269L55.196 115.064L54.6425 114.854L54.0915 114.64L53.5431 114.423L52.9971 114.201L52.4536 113.975L51.9125 113.745L51.3739 113.511L50.8376 113.272L50.3037 113.029L49.7721 112.782L49.2428 112.531L48.7158 112.276L48.191 112.016L47.6684 111.752L47.148 111.483L46.6296 111.21L46.1132 110.933L45.5987 110.652L45.086 110.367L44.5749 110.079L44.0652 109.786L43.5568 109.49L43.0494 109.191L42.5429 108.888L42.0369 108.582L41.5313 108.273L41.0257 107.962L40.5198 107.647L40.0134 107.33L39.506 107.011L38.9973 106.689L38.4871 106.366L37.9748 106.04L37.4603 105.711L36.943 105.381L36.4226 105.049L35.8987 104.714L35.371 104.377L34.839 104.038L34.3025 103.697L33.7612 103.352L33.2146 103.006L32.6625 102.656L32.1046 102.303L31.5407 101.947L30.9705 101.586L30.3938 101.222L29.8105 100.853L29.2205 100.48L28.6237 100.101L28.0201 99.7161L27.4097 99.3254L26.7926 98.9279L26.1688 98.5233L25.5386 98.1111L24.9022 97.6906L24.2599 97.2614L23.612 96.8229L22.959 96.3745L22.3013 95.9158L21.6394 95.4462L20.9739 94.9651L20.3054 94.472L19.6345 93.9666L18.962 93.4482L18.2885 92.9165L17.6147 92.3711L16.9415 91.8115L16.2696 91.2375L15.5999 90.6487L14.9332 90.0448L14.2703 89.4257L13.6123 88.791L12.9598 88.1407L12.314 87.4746L11.6756 86.7926L11.0456 86.0946L10.425 85.3808L9.81456 84.651L9.21527 83.9054L8.62803 83.1441L8.05373 82.3673L7.49324 81.5752L6.94743 80.7679L6.41712 79.9458L5.90315 79.1093L5.4063 78.2585L4.92733 77.3941L4.46701 76.5162L4.02605 75.6255L3.60513 74.7223L3.20491 73.8072L2.826 72.8808L2.46901 71.9435L2.13446 70.996L1.82287 70.0388L1.5347 69.0727L1.27037 68.0981L1.03027 67.1158L0.814712 66.1265L0.624007 65.1307L0.458394 64.1293L0.318078 63.1227L0.203217 62.1119L0.113926 61.0973L0.050279 60.0797L0.0123067 59.0598L0 58.0382L0.0133104 57.0157L0.052152 55.9927L0.116402 54.9701L0.205905 53.9483L0.320472 52.9281L0.459884 51.91L0.623894 50.8945L0.812229 49.8823L1.02459 48.8738L1.26067 47.8696L1.52012 46.8703L1.80259 45.8762L2.10771 44.8878L2.43511 43.9056L2.7844 42.9301L3.15519 41.9615L3.54707 41.0004L3.95965 40.047L4.39252 39.1018L4.84528 38.1651L5.31754 37.2372L5.8089 36.3185L6.31899 35.4093L6.84742 34.5098L7.39383 33.6204L7.95784 32.7415L8.53906 31.8731L9.1371 31.0157L9.75157 30.1694L10.382 29.3344L11.0281 28.5109L11.6894 27.6992L12.3655 26.8993L13.0559 26.1114L13.7602 25.3356L14.4781 24.572L15.2091 23.8206L15.9528 23.0817L16.7088 22.3551L17.4767 21.6409L18.256 20.9392L19.0464 20.2498L19.8476 19.5729L20.6591 18.9084L21.4805 18.2562L22.3116 17.6163L23.1519 16.9886L24.0012 16.373L24.859 15.7694L25.7252 15.1778L26.5993 14.598L27.4812 14.0299L28.3705 13.4735L29.267 12.9285L30.1705 12.395L31.0807 11.8727L31.9974 11.3616L32.9204 10.8615L33.8495 10.3723L34.7846 9.89396L35.7256 9.42633L36.6722 8.96933L37.6244 8.52288L38.582 8.0869L39.5449 7.66133L40.5131 7.24613L41.4865 6.84125L42.465 6.44667L43.4485 6.06239L44.4369 5.68843L45.4304 5.3248L46.4287 4.97155L47.4319 4.62875L48.4399 4.29649L49.4527 3.97486L50.4703 3.66398L51.4926 3.36401L52.5197 3.07509L53.5514 2.79741L54.5877 2.53117L55.6287 2.27658L56.6741 2.03387L57.724 1.8033L58.7783 1.58512L59.837 1.3796L60.8998 1.18705L61.9667 1.00775L63.0376 0.842018L64.1124 0.690159L65.1908 0.552494L66.2727 0.429343L67.358 0.321025L68.4464 0.22786L69.5378 0.150161L70.6318 0.0882334L71.7283 0.0423749L72.827 0.0128706L73.9276 0L75.0298 0.00404682L76.1333 0.0252986L77.2379 0.0640454L78.3431 0.120578L79.4486 0.195185L80.5541 0.288155L81.6591 0.399768L82.7633 0.530299L83.8662 0.680015L84.9674 0.849172L86.0665 1.03801L87.1629 1.24677L88.2563 1.47565L89.3461 1.72485L90.4317 1.99454L91.5128 2.28488L92.5887 2.596L93.6591 2.928L94.7232 3.28097L95.7806 3.65495L96.8307 4.04997L97.8731 4.46603L98.9071 4.90308L99.9323 5.36107L100.948 5.8399L101.954 6.33944L102.949 6.85957L103.934 7.40013L104.907 7.96094L105.868 8.54183L106.816 9.14259L107.752 9.76298L108.673 10.4028L109.581 11.0617L110.475 11.7394L111.353 12.4356L112.216 13.15L113.064 13.8822L113.895 14.6318L114.709 15.3985L115.507 16.1816L116.287 16.9809L117.049 17.7958L117.794 18.6259L118.521 19.4705L119.229 20.3293L119.918 21.2016L120.588 22.087L121.24 22.9847L121.872 23.8943L122.486 24.8151L123.08 25.7466L123.655 26.6882L124.21 27.6392L124.746 28.5991L125.263 29.5674L125.761 30.5433L126.24 31.5263L126.7 32.5159L127.141 33.5114L127.563 34.5125L127.967 35.5184L128.353 36.5287L128.72 37.5429L129.07 38.5605L129.402 39.581L129.716 40.6041L130.013 41.6292L130.293 42.656L130.556 43.684L130.803 44.713L131.032 45.7426L131.246 46.7724L131.443 47.8021L131.624 48.8315L131.789 49.8602L131.939 50.8879L132.073 51.9144L132.192 52.9394L132.296 53.9626L132.385 54.9838L132.459 56.0028L132.519 57.0193L132.565 58.0332L132.596 59.0441L132.613 60.052L132.616 61.0567L132.606 62.0579L132.582 63.0555L132.545 64.0492L132.495 65.0391L132.431 66.0248L132.355 67.0063L132.265 67.9834L132.163 68.956L132.049 69.9239L131.921 70.887L131.782 71.8451L131.63 72.7981L131.466 73.7459L131.29 74.6884L131.102 75.6255Z" fill="#F1D5AE"/>
</svg>
